<?xml version="1.0" standalone="no"?>
<!DOCTYPE svg PUBLIC "-//W3C//DTD SVG 20010904//EN"
 "http://www.w3.org/TR/2001/REC-SVG-20010904/DTD/svg10.dtd">
<svg version="1.0" xmlns="http://www.w3.org/2000/svg"
 width="95.000000pt" height="95.000000pt" viewBox="0 0 95.000000 95.000000"
 preserveAspectRatio="xMidYMid meet">

<g transform="translate(0.000000,95.000000) scale(0.100000,-0.100000)"
fill="#000000" stroke="none">
<path d="M464 845 c-5 -12 -1 -23 12 -32 17 -12 19 -12 22 3 2 9 -3 23 -12 32
-14 14 -16 14 -22 -3z"/>
<path d="M523 835 c-3 -9 -3 -18 0 -21 9 -9 27 6 27 22 0 19 -19 18 -27 -1z"/>
<path d="M413 828 c-4 -7 -30 -24 -58 -37 -34 -17 -44 -26 -32 -29 15 -3 26
-52 11 -52 -20 0 -45 24 -39 38 5 13 4 14 -6 5 -10 -10 -10 -18 -1 -38 18 -39
15 -46 -13 -33 -15 7 -24 17 -21 25 4 10 1 10 -14 1 -16 -11 -17 -14 -5 -21 8
-4 19 -16 25 -27 9 -17 6 -19 -31 -17 -38 2 -43 -1 -61 -35 -24 -46 -42 -244
-21 -226 7 6 11 14 8 18 -6 10 67 76 94 85 12 3 21 11 21 16 0 5 7 9 15 9 26
0 16 -17 -17 -31 l-32 -13 32 -8 c18 -5 32 -13 32 -18 0 -12 -2 -12 -35 0 -20
7 -34 6 -57 -6 l-32 -16 38 -13 c20 -7 45 -20 54 -28 9 -8 23 -12 31 -9 10 3
11 1 5 -9 -5 -8 -9 -30 -10 -49 0 -19 -4 -46 -8 -59 l-8 -24 33 19 c24 14 36
30 42 56 10 42 20 46 95 38 54 -6 97 -30 53 -30 -12 0 -19 4 -16 10 15 25 -19
7 -46 -25 -17 -19 -34 -34 -37 -33 -4 1 -17 -4 -30 -11 -31 -17 -57 -23 -116
-27 -55 -4 -76 -14 -28 -14 17 0 34 -5 37 -10 3 -6 20 -17 37 -26 16 -9 28
-11 24 -6 -3 5 6 20 19 32 l25 23 0 -37 c0 -30 -3 -37 -16 -32 -8 3 -12 2 -9
-4 10 -17 25 -11 50 18 l23 27 7 -27 c4 -15 4 -31 1 -36 -12 -21 78 -27 151
-12 l48 11 -3 42 -4 42 26 -25 c25 -23 26 -25 10 -37 -10 -7 -14 -13 -8 -13
14 1 50 30 36 30 -7 0 -12 7 -12 15 0 9 9 15 21 15 15 0 19 -4 15 -16 -5 -13
-4 -14 7 -6 7 6 24 16 38 22 l24 10 -27 -5 c-15 -3 -39 0 -55 7 -15 6 -34 12
-41 14 -8 1 -22 10 -31 18 -10 9 -20 14 -23 11 -7 -7 -78 72 -78 87 0 6 10 3
22 -8 20 -18 21 -18 15 -1 -4 10 -7 26 -7 35 0 15 -2 15 -10 2 -6 -9 -10 -10
-10 -3 0 6 5 15 10 18 6 4 17 21 24 38 13 30 14 30 13 7 0 -14 -4 -30 -8 -36
-12 -15 18 -54 41 -54 17 0 37 33 32 53 -1 5 8 1 20 -7 30 -21 41 -20 35 4 -3
11 0 20 5 20 6 0 8 -12 5 -30 -8 -35 -4 -36 31 -11 15 10 38 22 51 26 24 7 24
8 5 22 -14 10 -33 13 -71 8 l-53 -6 0 76 c0 48 4 74 10 70 6 -3 10 -19 10 -35
0 -21 6 -29 25 -34 14 -4 25 -11 25 -16 0 -6 7 -10 15 -10 18 0 97 -79 90 -90
-3 -4 1 -12 8 -18 9 -8 12 5 13 60 1 38 -2 64 -6 58 -5 -8 -18 -10 -34 -6 -29
7 -34 23 -11 32 22 9 18 24 -6 24 -24 0 -21 18 4 34 21 13 36 -5 38 -44 1 -17
3 -20 6 -7 5 21 -14 86 -33 107 -7 8 -13 20 -15 25 -3 15 -39 59 -39 47 0 -5
-13 -15 -30 -21 -34 -12 -40 1 -15 36 13 18 13 22 -3 35 -25 21 -92 61 -96 57
-2 -2 2 -39 9 -82 10 -61 10 -81 0 -94 -7 -10 -10 -23 -7 -31 3 -9 7 -10 11
-3 4 6 7 -32 6 -84 0 -52 -3 -95 -6 -95 -13 0 -19 33 -19 110 0 60 -3 79 -15
84 -12 4 -15 -4 -17 -37 l-1 -42 -4 40 c-3 27 0 43 11 50 8 6 18 23 21 37 l7
26 -64 -32 c-53 -26 -65 -29 -78 -18 -8 7 -32 24 -52 37 -33 21 -38 22 -38 7
0 -9 7 -30 15 -45 8 -15 9 -25 3 -21 -7 4 -8 3 -4 -4 11 -18 44 -14 56 6 11
16 11 16 6 -1 -3 -10 -6 -21 -6 -23 0 -2 -16 -4 -36 -4 -31 0 -36 3 -31 19 3
12 -1 22 -9 25 -25 10 -11 165 16 174 5 2 15 12 20 23 12 21 6 26 -7 7z m-40
-58 c-6 -22 -18 -26 -29 -9 -3 6 0 15 7 20 22 14 28 11 22 -11z m295 -12 c-5
-15 -23 -11 -26 6 -2 11 2 14 13 10 9 -4 14 -11 13 -16z m52 -25 c0 -7 -32
-32 -42 -33 -10 0 -11 44 -2 53 7 7 44 -10 44 -20z m-407 -107 c-22 -25 -45
-64 -53 -88 -16 -54 -25 -34 -10 22 12 43 91 141 98 121 2 -6 -14 -31 -35 -55z
m422 -31 c25 -45 40 -105 25 -105 -6 0 -10 8 -10 18 -1 30 -39 103 -65 124
-14 11 -25 27 -25 35 0 23 45 -21 75 -72z m74 35 c12 -22 21 -43 21 -45 0 -3
-14 -5 -31 -5 l-31 0 17 26 17 27 -31 -6 c-35 -7 -38 -1 -15 31 19 27 26 23
53 -28z m-584 -10 c18 -20 17 -20 -13 -20 -34 0 -35 1 -26 24 8 21 17 20 39
-4z m134 -6 c4 3 5 -8 3 -25 -3 -19 0 -29 9 -29 10 0 10 -3 1 -12 -7 -7 -12
-42 -12 -85 l0 -73 37 0 c26 0 34 -3 26 -11 -6 -6 -23 -9 -39 -7 -28 3 -29 4
-32 71 -2 51 -6 67 -17 67 -12 0 -15 -15 -15 -67 0 -36 -3 -63 -7 -60 -10 10
-3 131 8 135 5 2 7 8 3 13 -3 5 2 9 12 9 14 0 16 8 12 53 -3 28 -3 44 -1 34 2
-9 8 -15 12 -13z m357 -61 c21 -53 11 -70 -10 -18 -9 20 -25 48 -36 62 -28 36
-25 51 5 23 13 -13 32 -43 41 -67z m-396 27 c-5 -22 -8 -27 -9 -13 -1 21 9 56
14 51 2 -2 0 -19 -5 -38z m190 -25 c0 -25 -4 -45 -10 -45 -5 0 -10 7 -10 15 0
9 -10 16 -27 16 l-28 2 28 4 c21 3 27 10 27 29 0 13 5 24 10 24 6 0 10 -20 10
-45z m-297 -1 c-3 -11 -42 -14 -48 -4 -3 5 -2 16 1 25 6 14 9 14 28 2 11 -8
20 -18 19 -23z m357 17 c0 -5 -8 -8 -17 -7 -14 1 -19 -9 -24 -44 l-6 -45 -1
42 c-1 26 4 47 14 57 15 16 34 14 34 -3z m-279 -38 c-9 -16 -10 -16 -11 -1 0
9 3 25 7 35 7 16 8 17 11 1 2 -10 -1 -25 -7 -35z m-99 -17 c21 -16 13 -26 -19
-26 -16 0 -23 6 -23 20 0 23 17 25 42 6z m267 -12 c10 -10 -8 -14 -37 -8 -18
4 -29 11 -26 16 6 9 53 3 63 -8z m131 -34 c0 -5 -4 -10 -10 -10 -5 0 -10 5
-10 10 0 6 5 10 10 10 6 0 10 -4 10 -10z m-412 -12 c-6 -18 -28 -21 -28 -4 0
9 7 16 16 16 9 0 14 -5 12 -12z m282 2 c0 -13 -40 -13 -60 0 -11 7 -5 10 23
10 20 0 37 -4 37 -10z m59 -50 c-6 -5 -9 -15 -6 -24 5 -11 1 -16 -13 -16 -26
0 -25 16 0 37 11 10 21 27 21 38 1 16 3 16 6 -4 3 -13 -1 -27 -8 -31z m337 39
c10 -17 -13 -36 -27 -22 -12 12 -4 33 11 33 5 0 12 -5 16 -11z m-411 -29 c16
-7 13 -9 -17 -9 -21 -1 -38 4 -38 9 0 12 27 12 55 0z m-100 -70 c3 -6 -1 -7
-9 -4 -18 7 -21 14 -7 14 6 0 13 -4 16 -10z m195 -59 c0 -15 -30 -22 -58 -14
-25 7 -25 8 13 14 22 3 41 7 43 8 1 0 2 -3 2 -8z m-22 -32 c48 -1 53 -2 28 -9
-15 -5 -45 -7 -65 -5 -20 2 -39 4 -43 4 -5 1 -8 6 -8 12 0 6 7 8 16 5 9 -3 41
-6 72 -7z m12 -32 c68 1 80 -1 60 -9 -40 -17 -141 -14 -180 5 l-35 17 35 -7
c19 -4 73 -6 120 -6z m-210 -32 c0 -8 -4 -15 -9 -15 -5 0 -14 7 -21 15 -10 13
-9 15 9 15 12 0 21 -6 21 -15z m286 -54 c-4 -6 -16 -11 -27 -11 -13 0 -19 7
-19 23 0 13 3 27 7 31 10 10 47 -30 39 -43z m-116 -7 c0 -7 -10 -9 -25 -6 -29
5 -29 6 -14 34 11 21 12 21 25 3 8 -10 14 -24 14 -31z m50 27 c14 -28 13 -31
-15 -31 -26 0 -29 7 -19 34 8 21 21 20 34 -3z"/>
<path d="M596 817 c3 -10 9 -15 12 -12 3 3 0 11 -7 18 -10 9 -11 8 -5 -6z"/>
<path d="M430 811 c0 -5 -3 -16 -6 -25 -4 -10 5 -22 28 -36 42 -25 48 -25 48
3 0 14 -12 32 -30 45 -32 24 -40 27 -40 13z"/>
<path d="M560 805 c-7 -8 -19 -15 -26 -15 -9 0 -14 -11 -14 -30 0 -35 1 -35
40 -15 30 15 37 38 21 63 -6 10 -10 10 -21 -3z"/>
<path d="M400 740 c0 -34 5 -43 37 -65 21 -14 41 -25 45 -25 5 0 8 16 8 35 0
25 -4 35 -16 35 -8 0 -29 13 -45 29 l-29 29 0 -38z"/>
<path d="M598 757 c-4 -10 -23 -24 -42 -32 -24 -10 -35 -22 -39 -42 -7 -36 -4
-38 32 -23 45 18 63 43 59 82 -2 25 -5 29 -10 15z"/>
<path d="M690 454 c0 -27 5 -29 39 -10 l24 13 -32 11 c-29 10 -31 10 -31 -14z"/>
<path d="M166 381 c-18 -19 -17 -20 19 -35 27 -12 42 -13 56 -6 25 14 24 17
-13 40 -40 24 -41 24 -62 1z"/>
<path d="M773 365 c-38 -16 -41 -25 -13 -42 18 -12 47 -3 90 25 5 4 -30 32
-39 32 -3 -1 -21 -7 -38 -15z"/>
<path d="M649 350 c-1 -11 -1 -29 -1 -40 0 -48 4 -57 30 -72 l28 -17 0 57 c-1
43 -6 61 -20 75 -25 22 -36 22 -37 -3z"/>
<path d="M115 340 c-4 -12 -5 -24 -2 -27 3 -2 8 5 12 17 4 12 5 24 2 27 -3 2
-8 -5 -12 -17z"/>
<path d="M141 326 c-9 -11 -7 -15 10 -19 32 -8 52 2 38 19 -15 18 -33 18 -48
0z"/>
<path d="M241 321 c-8 -5 -16 -26 -17 -45 -1 -29 2 -36 17 -36 22 0 39 29 39
64 0 27 -14 33 -39 17z"/>
<path d="M370 311 c0 -11 -3 -28 -7 -38 -4 -13 3 -9 25 11 39 36 40 46 7 46
-18 0 -25 -5 -25 -19z"/>
<path d="M580 314 c0 -5 12 -22 28 -37 l27 -26 -3 37 c-3 32 -7 37 -28 37 -13
0 -24 -5 -24 -11z"/>
<path d="M877 291 c7 -49 -9 -70 -56 -72 -19 -1 -21 -3 -8 -6 10 -3 32 1 48 7
24 10 29 18 28 44 0 17 -4 40 -9 51 -6 13 -7 5 -3 -24z"/>
<path d="M722 278 c3 -36 7 -43 30 -49 26 -7 27 -6 25 29 -1 25 -9 41 -22 49
-32 19 -36 16 -33 -29z"/>
<path d="M812 313 c-9 -4 -10 -8 -2 -18 13 -15 53 -8 47 9 -4 13 -26 17 -45 9z"/>
<path d="M100 278 c0 -19 2 -20 10 -8 13 19 13 30 0 30 -5 0 -10 -10 -10 -22z"/>
<path d="M183 293 c-7 -2 -13 -14 -13 -25 0 -28 34 -19 38 10 3 22 -2 25 -25
15z"/>
<path d="M792 265 c2 -19 9 -31 21 -33 23 -5 22 10 -3 39 l-20 24 2 -30z"/>
<path d="M160 230 c20 -13 33 -13 25 0 -3 6 -14 10 -23 10 -15 0 -15 -2 -2
-10z"/>
</g>
</svg>
